# xmcd
#
# Track frame offsets:
#	150
#	16834
#	37959
#	49460
#	71986
#	89737
#	104812
#	123237
#	140937
#	157736
#	178391
#	192623
#	207959
#	223823
#	241537
#	255831
#	267379
#	288086
#	301990
#	313645
#	328661
#
# Disc length: 4575 seconds
#
# Revision: 0
# Processed by: cddbd v1.5.2PL0 Copyright (c) Steve Scherf et al.
# Submitted via: audiograbber 1.83.01
#
DISCID=4311dd15
DTITLE=Albert Lee - Hiding \\ Albert Lee
DYEAR=1979
DGENRE=Rock
TTITLE0=Hiding - Country Boy
TTITLE1=Hiding - Billy Tyler
TTITLE2=Hiding - Are You Wasting My Time?
TTITLE3=Hiding - Now And Then It's Gonna Rain
TTITLE4=Hiding - On A Real Good Night
TTITLE5=Hiding - Setting Me Up
TTITLE6=Hiding - Ain't Livin' Long Like This
TTITLE7=Hiding - Hiding
TTITLE8=Hiding - Hotel Love
TTITLE9=Hiding - Come Up And See Me Anytime
TTITLE10=Albert Lee - Sweet Little Lisa
TTITLE11=Albert Lee - Radio Girl
TTITLE12=Albert Lee - Your Boys
TTITLE13=Albert Lee - So Sad (To Watch Good Love Go Bad)
TTITLE14=Albert Lee - Rock 'n' Roll Man
TTITLE15=Albert Lee - Real Wild Child (Wild One)
TTITLE16=Albert Lee - On The Boulevard
TTITLE17=Albert Lee - Pink Bedroom
TTITLE18=Albert Lee - The Best I Can
TTITLE19=Albert Lee - One Way Rider
TTITLE20=[bonus track] - Blue Side Of Town [Patty Loveless featuring Albert Lee
TTITLE20=]
EXTD=
EXTT0=
EXTT1=
EXTT2=
EXTT3=
EXTT4=
EXTT5=
EXTT6=
EXTT7=
EXTT8=
EXTT9=
EXTT10=
EXTT11=
EXTT12=
EXTT13=
EXTT14=
EXTT15=
EXTT16=
EXTT17=
EXTT18=
EXTT19=
EXTT20=
PLAYORDER=
